<?xml version="1.0" encoding="utf-8"?>
<!-- Generator: Adobe Illustrator 24.1.1, SVG Export Plug-In . SVG Version: 6.00 Build 0)  -->
<svg version="1.1" id="Layer_1" xmlns="http://www.w3.org/2000/svg" xmlns:xlink="http://www.w3.org/1999/xlink" x="0px" y="0px"
	 viewBox="0 0 1024 1024" style="enable-background:new 0 0 1024 1024;" xml:space="preserve">
<style type="text/css">
	.st0{fill:#801616;}
	.st1{fill:url(#SVGID_1_);}
</style>
<rect class="st0" width="1024" height="1024"/>
<linearGradient id="SVGID_1_" gradientUnits="userSpaceOnUse" x1="140.1448" y1="512" x2="883.8552" y2="512">
	<stop  offset="0" style="stop-color:#EFE5B3"/>
	<stop  offset="0.5084" style="stop-color:#C9B460"/>
	<stop  offset="1" style="stop-color:#EFE5B4"/>
</linearGradient>
<path class="st1" d="M238.7,514.77c2.69,5.1,5.49,10.42,8.16,15.49c-0.08,2.87-2.09,3.96-3.71,5.32
	c-21.88,18.37-42.64,37.78-57.51,62.6c-4.56,7.62-7.6,15.68-8.26,24.7c-0.83,11.27,3.21,19.74,12.66,26.02
	c10.81,7.18,22.73,11.28,35.3,13.73c24.08,4.69,48.41,5.21,72.79,3.81c53.13-3.06,105.06-13.61,156.75-25.55
	c40.66-9.39,81.03-19.92,120.79-32.59c56.89-18.13,112.46-39.56,165.14-67.92c27.98-15.06,54.66-32.13,78.04-53.85
	c9.06-8.42,17.27-17.79,22.71-29.06c7.59-15.72,5.58-28.86-8.43-40.12c-13.56-10.89-29.41-16.91-45.96-21.22
	c-37.26-9.68-75.3-11.5-113.57-10.65c-2.31,0.05-4.66,0.52-6.78-0.77c-2.55-3.42-3.86-6.05-4.68-9.37c1.04-2.31,3.26-1.77,5.12-2.12
	c36.71-6.79,73.94-6.99,110.75-4.17c27.58,2.12,55.59,7.78,78.8,25.23c16.73,12.58,26.92,28.69,27.03,50.89
	c0.08,18.32-5.57,34.31-14.55,49.6c-14.99,25.53-35.6,46.05-58.09,64.9c-38.39,32.19-81.2,57.39-125.96,79.42
	c-38.29,18.85-77.97,34.22-118.52,47.54c-37.86,12.44-76.41,21.8-115.67,28.37c-14.14,2.36-28.36,4.06-42.61,5.6
	c-38.05,4.12-76.32,3.41-114.27,1.21c-37.32-2.17-74.4-8.97-108.24-26.76c-17.31-9.1-32.14-21.24-40.25-39.56
	c-10.06-22.74-5.58-44.44,6.62-65.1c15.12-25.6,37.34-44.08,61.29-60.78c6.31-4.4,12.83-8.51,19.28-12.71
	C234.49,515.85,235.95,514.35,238.7,514.77z M542.16,575.78c-4.25-7.35-10.13-9.19-17.72-5.49c-12.72,6.19-25.38,12.49-37.94,19
	c-41.92,21.7-84.83,24.44-128.56,6.28c-33.94-14.09-58.9-38.15-75.56-70.81c-10.65-20.86-21.17-41.79-31.54-62.8
	c-2.68-5.43-6.83-10.22-7.84-16.39c-2.1-12.9,2.53-20.63,16.09-27.69c4.04-2.11,7.36-2.19,11.37,0.61
	c11.5,8.04,24.08,9.23,36.64,3.01c12.88-6.38,19.94-17.24,20.49-31.71c0.18-4.82,2.04-7.62,6.16-9.63
	c8.69-4.24,17.41-8.45,25.87-13.11c4.17-2.3,7.18-2.27,11.14,0.7c11.76,8.78,24.77,10.37,37.94,3.69
	c13.23-6.71,20.32-17.92,20.23-32.91c-0.03-5.2,2.11-7.81,6.42-9.88c9.36-4.48,18.7-9.05,27.83-13.99c3.71-2.01,6.4-1.75,9.78,0.64
	c12.16,8.58,25.32,9.92,38.59,3.2c13.43-6.8,20.33-18.21,20.47-33.39c0.03-3.66,1.43-6.04,4.73-7.65
	c6.28-3.05,12.47-6.28,18.68-9.48c8.82-4.55,11.98-3.44,16.48,5.51c12.11,24.14,24.29,48.24,36.46,72.35
	c12,23.79,23.97,47.6,36.05,71.35c17.27,33.97,34.55,67.93,52.09,101.76c1.79,3.45,2.39,7.99,6.98,10.47
	c6.47-3.95,14.12-6.08,19.87-11.07c0.2-3.96-2.32-6.14-3.64-8.8c-13.63-27.37-27.28-54.74-41.1-82.02
	c-10.83-21.38-22-42.6-32.86-63.97c-8.99-17.68-17.75-35.49-26.63-53.23c-5.52-11.04-11.34-21.93-16.6-33.11
	c-7.55-16.05-15.14-32.17-33.48-39.29c-4.33-1.68-8.03-2.54-12.04,0.05c-9.92,6.39-19.59,13.16-30.4,18.09
	c-3.23,1.47-7.32,2.22-9.04,6c5.99,20.45,2.2,33.94-11.68,42.06c-6.12,3.58-12.72,4.69-19.68,3.8
	c-11.48-1.47-18.77-8.84-24.82-18.72c-16.11,7.84-31.86,15.44-47.7,24.13c4.45,7.89,6.61,15.48,4.83,23.79
	c-1.83,8.54-6.3,15.45-13.87,19.56c-20.48,11.11-35.12,2.63-46.73-15.61c-14.73,7.5-29.09,14.82-43.22,22.02
	c5.11,22.71,2.32,34.7-11.06,42.15c-19.21,10.68-33.87,3.13-45.43-13.92c-5.48,2.87-10.3,6.1-15.58,8.04
	c-21.39,7.85-32.49,37.18-22.22,58.75c9.69,20.35,20.6,40.11,30.43,60.4c9.54,19.69,20.38,38.58,32.64,56.67
	c13.47,19.87,27.87,39.04,43.75,57.08c2.21,2.51,4.4,4.42,8.23,3.86c30.31-4.47,60.5-9.59,90.41-16.24
	c32.16-7.15,64.17-14.88,95.92-23.68c8.41-2.33,16.77-4.84,25.15-7.26C548.03,583.11,544.38,579.63,542.16,575.78z M460.2,740.89
	c0.66,3.13,2.24,3.36,3.47,4c16.71,8.65,33.83,16.34,51.59,22.66c27.67,9.86,56.4,15.34,85.33,18.86
	c27.52,3.35,55.05-0.46,82.18-5.91c34.71-6.97,68.54-16.5,99.7-34.04c12.25-6.9,26.19-11.39,33.32-26.23
	c-0.63-10.47,1.58-21.72-5.17-33.04c-11.15-18.7-20.04-38.73-30.1-58.1c-1.65-3.18-2.51-7.14-6.52-9.26
	c-5.99,5.02-13.63,7.61-19.33,13.06c0.38,1.3,0.49,2.21,0.88,2.98c11.26,22.36,22.55,44.71,33.85,67.05c3.55,7.03,3,9.78-4.02,13.29
	c-15.19,7.61-29.9,16.22-45.89,22.2c-44.48,16.61-83.94,7.79-118.98-23.41c-4.66-4.15-9.15-8.48-14.47-13.44
	C559,719.18,510.13,732.08,460.2,740.89z"/>
</svg>
